<svg width="253" height="64" viewBox="0 0 253 64" fill="none" xmlns="http://www.w3.org/2000/svg">
<path fill-rule="evenodd" clip-rule="evenodd" d="M184.625 13.4129V0.0578613H197.995V13.4169H184.625V13.4129Z" fill="#39B4C0"/>
<path d="M207.431 40.7383C207.431 33.7742 209.62 28.2087 213.998 24.0295C218.372 19.8503 223.793 17.7546 230.259 17.7546C236.726 17.7546 242.123 19.8422 246.477 24.0295C250.831 28.2087 253 33.7823 253 40.7383C253 47.6942 250.839 53.3119 246.513 57.5713C242.187 61.8346 236.799 63.9623 230.332 63.9623C223.865 63.9623 218.44 61.8306 214.034 57.5713C209.632 53.3079 207.431 47.6942 207.431 40.7383ZM239.393 40.8184C239.393 37.1481 238.482 34.3553 236.658 32.4399C234.834 30.5206 232.669 29.7193 230.171 29.7193C227.674 29.7193 225.517 30.5287 223.72 32.4399C221.924 34.3512 221.022 37.1481 221.022 40.8184C221.022 44.4887 221.948 47.2935 223.801 49.2329C225.649 51.1722 227.826 51.9856 230.324 51.9856C232.821 51.9856 234.962 51.1722 236.73 49.2329C238.499 47.2935 239.389 44.4887 239.389 40.8184H239.397H239.393Z" fill="white"/>
<path d="M197.993 17.7688H184.623V63.9604H197.993V17.7688Z" fill="white"/>
<path fill-rule="evenodd" clip-rule="evenodd" d="M132.675 13.4129V0.0578613H146.046V13.4169H132.675V13.4129Z" fill="#ED3287"/>
<path d="M146.046 17.7688H132.675V63.9604H146.046V17.7688Z" fill="white"/>
<path d="M171.766 0.0578613H158.399V63.9961H171.766V0.0578613Z" fill="white"/>
<path d="M82.1081 40.8254C82.1081 33.8134 84.1288 28.2157 88.1661 24.0285C92.2034 19.8493 97.4315 17.7537 103.838 17.7537C109.151 17.7537 113.661 19.112 117.357 21.8407C121.058 24.5654 123.508 28.4681 124.702 33.5329H110.245C108.99 30.8362 106.949 29.7343 104.107 29.7343C101.264 29.7343 99.1595 30.5277 97.7763 32.6033C96.3931 34.6788 95.7075 37.4196 95.7075 40.8174C95.7075 44.2153 96.3931 46.956 97.7763 49.0316C99.1595 51.1072 101.176 51.9887 103.834 51.9887C105.502 51.9887 106.805 51.8485 107.743 51.2554C108.681 50.6624 109.511 49.6086 110.241 48.098H124.698C123.504 52.9584 121.026 56.813 117.273 59.6699C113.521 62.5309 109.038 63.9573 103.826 63.9573C97.4195 63.9573 92.1914 61.8537 88.1541 57.6465C84.1167 53.4392 82.0961 47.8295 82.0961 40.8134L82.1041 40.8214L82.1081 40.8254Z" fill="white"/>
<path d="M28.0013 40.9127C28.0013 34.1731 29.9257 28.6235 33.7866 24.28C37.6476 19.9365 42.3424 17.7688 47.8912 17.7688C53.44 17.7688 57.7019 19.9005 60.6727 24.1598V17.7688H74.0396V63.9764H60.6727V56.8562C57.4453 61.6084 53.1193 63.9764 47.6988 63.9764C42.2782 63.9764 37.6395 61.8167 33.7866 57.5013C29.9257 53.1858 28.0013 47.6523 28.0013 40.9127ZM60.6647 40.8285C60.6647 37.2664 59.6985 34.5297 57.77 32.6144C55.8456 30.6951 53.6244 29.7454 51.1267 29.7454C48.6289 29.7454 46.4078 30.7191 44.4833 32.6585C42.5589 34.5978 41.5887 37.3546 41.5887 40.9167C41.5887 44.4788 42.5549 47.2156 44.4833 49.1309C46.4078 51.0502 48.6289 51.9998 51.1267 51.9998C53.6244 51.9998 55.8456 51.0261 57.77 49.0868C59.6945 47.1474 60.6647 44.3907 60.6647 40.8285Z" fill="white"/>
<path d="M23.8223 0C23.2088 0 22.6034 0.0120207 22.0101 0.0400691H23.8223V0Z" fill="white"/>
<path d="M22.091 13.1725H23.9513V0.0578613H21.197C12.3164 0.0578613 5.11582 7.25427 5.11582 16.1296V17.7884H0V29.749H4.90733V64.0001H18.2742V29.749H23.823V17.7884H18.3664V16.8949C18.3664 14.8393 20.0343 13.1725 22.091 13.1725Z" fill="white"/>
</svg>
