<svg width="253" height="64" viewBox="0 0 253 64" fill="none" xmlns="http://www.w3.org/2000/svg">
<path fill-rule="evenodd" clip-rule="evenodd" d="M184.625 13.4129V0.0578613H197.995V13.4169H184.625V13.4129Z" fill="#301894"/>
<path d="M207.431 40.7383C207.431 33.7742 209.62 28.2087 213.998 24.0295C218.372 19.8503 223.793 17.7546 230.259 17.7546C236.726 17.7546 242.123 19.8422 246.477 24.0295C250.831 28.2087 253 33.7823 253 40.7383C253 47.6942 250.839 53.3119 246.513 57.5713C242.187 61.8346 236.799 63.9623 230.332 63.9623C223.865 63.9623 218.44 61.8306 214.034 57.5713C209.632 53.3079 207.431 47.6942 207.431 40.7383ZM239.393 40.8184C239.393 37.1481 238.482 34.3553 236.658 32.4399C234.834 30.5206 232.669 29.7193 230.171 29.7193C227.674 29.7193 225.517 30.5287 223.72 32.4399C221.924 34.3512 221.022 37.1481 221.022 40.8184C221.022 44.4887 221.948 47.2935 223.801 49.2329C225.649 51.1722 227.826 51.9856 230.324 51.9856C232.821 51.9856 234.962 51.1722 236.73 49.2329C238.499 47.2935 239.389 44.4887 239.389 40.8184H239.397H239.393Z" fill="#301894"/>
<path d="M197.993 17.7688H184.623V63.9604H197.993V17.7688Z" fill="#301894"/>
<path fill-rule="evenodd" clip-rule="evenodd" d="M132.674 13.4133V0.0582275H146.045V13.4173H132.674V13.4133Z" fill="#301894"/>
<path d="M146.045 17.7692H132.674V63.9608H146.045V17.7692Z" fill="#301894"/>
<path d="M171.766 0.0578613H158.399V63.9961H171.766V0.0578613Z" fill="#301894"/>
<path d="M82.1074 40.8259C82.1074 33.8138 84.128 28.2162 88.1654 24.029C92.2027 19.8498 97.4307 17.7542 103.838 17.7542C109.15 17.7542 113.66 19.1125 117.357 21.8412C121.057 24.5659 123.507 28.4686 124.702 33.5334H110.244C108.989 30.8367 106.949 29.7348 104.106 29.7348C101.264 29.7348 99.1587 30.5282 97.7755 32.6038C96.3924 34.6793 95.7068 37.4201 95.7068 40.8179C95.7068 44.2158 96.3924 46.9565 97.7755 49.0321C99.1587 51.1077 101.175 51.9892 103.834 51.9892C105.501 51.9892 106.804 51.8489 107.743 51.2559C108.681 50.6629 109.511 49.6091 110.24 48.0985H124.698C123.503 52.9589 121.025 56.8135 117.273 59.6704C113.52 62.5314 109.038 63.9578 103.826 63.9578C97.4187 63.9578 92.1906 61.8542 88.1533 57.6469C84.116 53.4397 82.0953 47.83 82.0953 40.8139L82.1034 40.8219L82.1074 40.8259Z" fill="#301894"/>
<path d="M28.0013 40.9127C28.0013 34.1731 29.9258 28.6235 33.7867 24.28C37.6476 19.9365 42.3425 17.7688 47.8913 17.7688C53.4401 17.7688 57.7019 19.9005 60.6728 24.1598V17.7688H74.0396V63.9764H60.6728V56.8562C57.4453 61.6084 53.1193 63.9764 47.6988 63.9764C42.2783 63.9764 37.6396 61.8167 33.7867 57.5013C29.9258 53.1858 28.0013 47.6523 28.0013 40.9127ZM60.6648 40.8285C60.6648 37.2664 59.6985 34.5297 57.7701 32.6144C55.8456 30.6951 53.6245 29.7454 51.1267 29.7454C48.629 29.7454 46.4078 30.7191 44.4834 32.6585C42.559 34.5978 41.5887 37.3546 41.5887 40.9167C41.5887 44.4788 42.5549 47.2156 44.4834 49.1309C46.4078 51.0502 48.629 51.9998 51.1267 51.9998C53.6245 51.9998 55.8456 51.0261 57.7701 49.0868C59.6945 47.1474 60.6648 44.3907 60.6648 40.8285Z" fill="#301894"/>
<path d="M23.8216 0.000244141C23.2082 0.000244141 22.6028 0.0122649 22.0094 0.0403132H23.8216V0.000244141Z" fill="#301894"/>
<path d="M22.091 13.1725H23.9513V0.0578613H21.197C12.3164 0.0578613 5.11582 7.25427 5.11582 16.1296V17.7884H0V29.749H4.90733V64.0001H18.2742V29.749H23.823V17.7884H18.3664V16.8949C18.3664 14.8393 20.0343 13.1725 22.091 13.1725Z" fill="#301894"/>
</svg>
